<mxfile host="app.diagrams.net" agent="Mozilla/5.0 (Windows NT 10.0; Win64; x64; rv:144.0) Gecko/20100101 Firefox/144.0" version="28.2.5">
  <diagram name="Сторінка-1" id="LlAQuXf8TAjTAlif95se">
    <mxGraphModel dx="1426" dy="759" grid="1" gridSize="10" guides="1" tooltips="1" connect="1" arrows="1" fold="1" page="1" pageScale="1" pageWidth="827" pageHeight="1169" math="0" shadow="0">
      <root>
        <mxCell id="0" />
        <mxCell id="1" parent="0" />
        <mxCell id="leX6Jk-sskUQgYAU_4JE-1" value="ConfigManager" style="swimlane;fontStyle=1;align=center;verticalAlign=top;childLayout=stackLayout;horizontal=1;startSize=26;horizontalStack=0;resizeParent=1;resizeParentMax=0;resizeLast=0;collapsible=1;marginBottom=0;whiteSpace=wrap;html=1;" vertex="1" parent="1">
          <mxGeometry x="70" y="880" width="220" height="140" as="geometry" />
        </mxCell>
        <mxCell id="leX6Jk-sskUQgYAU_4JE-2" value="&lt;div&gt;- instance: ConfigerManager&lt;/div&gt;&lt;div&gt;-properties:Properties&lt;/div&gt;" style="text;strokeColor=none;fillColor=none;align=left;verticalAlign=top;spacingLeft=4;spacingRight=4;overflow=hidden;rotatable=0;points=[[0,0.5],[1,0.5]];portConstraint=eastwest;whiteSpace=wrap;html=1;" vertex="1" parent="leX6Jk-sskUQgYAU_4JE-1">
          <mxGeometry y="26" width="220" height="54" as="geometry" />
        </mxCell>
        <mxCell id="leX6Jk-sskUQgYAU_4JE-3" value="" style="line;strokeWidth=1;fillColor=none;align=left;verticalAlign=middle;spacingTop=-1;spacingLeft=3;spacingRight=3;rotatable=0;labelPosition=right;points=[];portConstraint=eastwest;strokeColor=inherit;" vertex="1" parent="leX6Jk-sskUQgYAU_4JE-1">
          <mxGeometry y="80" width="220" height="8" as="geometry" />
        </mxCell>
        <mxCell id="leX6Jk-sskUQgYAU_4JE-13" style="edgeStyle=orthogonalEdgeStyle;rounded=0;orthogonalLoop=1;jettySize=auto;html=1;exitX=1;exitY=0.5;exitDx=0;exitDy=0;entryX=1;entryY=0.086;entryDx=0;entryDy=0;entryPerimeter=0;endArrow=open;endFill=0;" edge="1" parent="leX6Jk-sskUQgYAU_4JE-1" source="leX6Jk-sskUQgYAU_4JE-4" target="leX6Jk-sskUQgYAU_4JE-1">
          <mxGeometry relative="1" as="geometry">
            <mxPoint x="310" y="60" as="targetPoint" />
          </mxGeometry>
        </mxCell>
        <mxCell id="leX6Jk-sskUQgYAU_4JE-4" value="&lt;div&gt;- Configmanager()&lt;/div&gt;&lt;div&gt;+ getInstance(): ConfigManager&lt;/div&gt;" style="text;strokeColor=none;fillColor=none;align=left;verticalAlign=top;spacingLeft=4;spacingRight=4;overflow=hidden;rotatable=0;points=[[0,0.5],[1,0.5]];portConstraint=eastwest;whiteSpace=wrap;html=1;" vertex="1" parent="leX6Jk-sskUQgYAU_4JE-1">
          <mxGeometry y="88" width="220" height="52" as="geometry" />
        </mxCell>
        <mxCell id="leX6Jk-sskUQgYAU_4JE-5" value="EmailSessionManager" style="swimlane;fontStyle=1;align=center;verticalAlign=top;childLayout=stackLayout;horizontal=1;startSize=26;horizontalStack=0;resizeParent=1;resizeParentMax=0;resizeLast=0;collapsible=1;marginBottom=0;whiteSpace=wrap;html=1;" vertex="1" parent="1">
          <mxGeometry x="414" y="890" width="220" height="150" as="geometry" />
        </mxCell>
        <mxCell id="leX6Jk-sskUQgYAU_4JE-6" value="&lt;div&gt;- instance: EmailSessionManager&lt;/div&gt;&lt;div&gt;- session:Session&lt;/div&gt;" style="text;strokeColor=none;fillColor=none;align=left;verticalAlign=top;spacingLeft=4;spacingRight=4;overflow=hidden;rotatable=0;points=[[0,0.5],[1,0.5]];portConstraint=eastwest;whiteSpace=wrap;html=1;" vertex="1" parent="leX6Jk-sskUQgYAU_4JE-5">
          <mxGeometry y="26" width="220" height="54" as="geometry" />
        </mxCell>
        <mxCell id="leX6Jk-sskUQgYAU_4JE-7" value="" style="line;strokeWidth=1;fillColor=none;align=left;verticalAlign=middle;spacingTop=-1;spacingLeft=3;spacingRight=3;rotatable=0;labelPosition=right;points=[];portConstraint=eastwest;strokeColor=inherit;" vertex="1" parent="leX6Jk-sskUQgYAU_4JE-5">
          <mxGeometry y="80" width="220" height="8" as="geometry" />
        </mxCell>
        <mxCell id="leX6Jk-sskUQgYAU_4JE-8" value="&lt;div&gt;-&amp;nbsp; EmailSessionManager()&lt;/div&gt;&lt;div&gt;+ getInstance(): ConfigManager&lt;/div&gt;&lt;div&gt;+ getSession(): Session&lt;/div&gt;" style="text;strokeColor=none;fillColor=none;align=left;verticalAlign=top;spacingLeft=4;spacingRight=4;overflow=hidden;rotatable=0;points=[[0,0.5],[1,0.5]];portConstraint=eastwest;whiteSpace=wrap;html=1;" vertex="1" parent="leX6Jk-sskUQgYAU_4JE-5">
          <mxGeometry y="88" width="220" height="62" as="geometry" />
        </mxCell>
        <mxCell id="leX6Jk-sskUQgYAU_4JE-14" style="edgeStyle=orthogonalEdgeStyle;rounded=0;orthogonalLoop=1;jettySize=auto;html=1;exitX=1;exitY=0.5;exitDx=0;exitDy=0;entryX=1;entryY=0.133;entryDx=0;entryDy=0;entryPerimeter=0;endArrow=open;endFill=0;" edge="1" parent="leX6Jk-sskUQgYAU_4JE-5" source="leX6Jk-sskUQgYAU_4JE-8" target="leX6Jk-sskUQgYAU_4JE-5">
          <mxGeometry relative="1" as="geometry" />
        </mxCell>
        <mxCell id="leX6Jk-sskUQgYAU_4JE-39" style="edgeStyle=orthogonalEdgeStyle;rounded=0;orthogonalLoop=1;jettySize=auto;html=1;exitX=0.5;exitY=1;exitDx=0;exitDy=0;entryX=0.5;entryY=0;entryDx=0;entryDy=0;endArrow=open;endFill=0;" edge="1" parent="1" source="leX6Jk-sskUQgYAU_4JE-9" target="leX6Jk-sskUQgYAU_4JE-16">
          <mxGeometry relative="1" as="geometry" />
        </mxCell>
        <mxCell id="leX6Jk-sskUQgYAU_4JE-9" value="MailReceiverManager" style="swimlane;fontStyle=1;align=center;verticalAlign=top;childLayout=stackLayout;horizontal=1;startSize=26;horizontalStack=0;resizeParent=1;resizeParentMax=0;resizeLast=0;collapsible=1;marginBottom=0;whiteSpace=wrap;html=1;" vertex="1" parent="1">
          <mxGeometry x="240" y="380" width="220" height="120" as="geometry" />
        </mxCell>
        <mxCell id="leX6Jk-sskUQgYAU_4JE-10" value="&lt;div&gt;- instance: MailReceiverManager&lt;/div&gt;" style="text;strokeColor=none;fillColor=none;align=left;verticalAlign=top;spacingLeft=4;spacingRight=4;overflow=hidden;rotatable=0;points=[[0,0.5],[1,0.5]];portConstraint=eastwest;whiteSpace=wrap;html=1;" vertex="1" parent="leX6Jk-sskUQgYAU_4JE-9">
          <mxGeometry y="26" width="220" height="34" as="geometry" />
        </mxCell>
        <mxCell id="leX6Jk-sskUQgYAU_4JE-11" value="" style="line;strokeWidth=1;fillColor=none;align=left;verticalAlign=middle;spacingTop=-1;spacingLeft=3;spacingRight=3;rotatable=0;labelPosition=right;points=[];portConstraint=eastwest;strokeColor=inherit;" vertex="1" parent="leX6Jk-sskUQgYAU_4JE-9">
          <mxGeometry y="60" width="220" height="8" as="geometry" />
        </mxCell>
        <mxCell id="leX6Jk-sskUQgYAU_4JE-12" value="&lt;div&gt;-&amp;nbsp; MailReceiverManager()&lt;/div&gt;&lt;div&gt;+ getInstance(): ConfigManager&lt;/div&gt;" style="text;strokeColor=none;fillColor=none;align=left;verticalAlign=top;spacingLeft=4;spacingRight=4;overflow=hidden;rotatable=0;points=[[0,0.5],[1,0.5]];portConstraint=eastwest;whiteSpace=wrap;html=1;" vertex="1" parent="leX6Jk-sskUQgYAU_4JE-9">
          <mxGeometry y="68" width="220" height="52" as="geometry" />
        </mxCell>
        <mxCell id="leX6Jk-sskUQgYAU_4JE-15" style="edgeStyle=orthogonalEdgeStyle;rounded=0;orthogonalLoop=1;jettySize=auto;html=1;exitX=1;exitY=0.75;exitDx=0;exitDy=0;entryX=1;entryY=0.083;entryDx=0;entryDy=0;entryPerimeter=0;endArrow=open;endFill=0;" edge="1" parent="1" source="leX6Jk-sskUQgYAU_4JE-9" target="leX6Jk-sskUQgYAU_4JE-9">
          <mxGeometry relative="1" as="geometry" />
        </mxCell>
        <mxCell id="leX6Jk-sskUQgYAU_4JE-16" value="MailReceiver" style="swimlane;fontStyle=1;align=center;verticalAlign=top;childLayout=stackLayout;horizontal=1;startSize=26;horizontalStack=0;resizeParent=1;resizeParentMax=0;resizeLast=0;collapsible=1;marginBottom=0;whiteSpace=wrap;html=1;" vertex="1" parent="1">
          <mxGeometry x="240" y="570" width="220" height="90" as="geometry" />
        </mxCell>
        <mxCell id="leX6Jk-sskUQgYAU_4JE-18" value="" style="line;strokeWidth=1;fillColor=none;align=left;verticalAlign=middle;spacingTop=-1;spacingLeft=3;spacingRight=3;rotatable=0;labelPosition=right;points=[];portConstraint=eastwest;strokeColor=inherit;" vertex="1" parent="leX6Jk-sskUQgYAU_4JE-16">
          <mxGeometry y="26" width="220" height="8" as="geometry" />
        </mxCell>
        <mxCell id="leX6Jk-sskUQgYAU_4JE-19" value="+ receiveEmails(email, password, count): List" style="text;strokeColor=none;fillColor=none;align=left;verticalAlign=top;spacingLeft=4;spacingRight=4;overflow=hidden;rotatable=0;points=[[0,0.5],[1,0.5]];portConstraint=eastwest;whiteSpace=wrap;html=1;" vertex="1" parent="leX6Jk-sskUQgYAU_4JE-16">
          <mxGeometry y="34" width="220" height="56" as="geometry" />
        </mxCell>
        <mxCell id="leX6Jk-sskUQgYAU_4JE-20" value="GmailImapReceive" style="swimlane;fontStyle=1;align=center;verticalAlign=top;childLayout=stackLayout;horizontal=1;startSize=26;horizontalStack=0;resizeParent=1;resizeParentMax=0;resizeLast=0;collapsible=1;marginBottom=0;whiteSpace=wrap;html=1;" vertex="1" parent="1">
          <mxGeometry x="20" y="700" width="160" height="60" as="geometry" />
        </mxCell>
        <mxCell id="leX6Jk-sskUQgYAU_4JE-22" value="" style="line;strokeWidth=1;fillColor=none;align=left;verticalAlign=middle;spacingTop=-1;spacingLeft=3;spacingRight=3;rotatable=0;labelPosition=right;points=[];portConstraint=eastwest;strokeColor=inherit;" vertex="1" parent="leX6Jk-sskUQgYAU_4JE-20">
          <mxGeometry y="26" width="160" height="8" as="geometry" />
        </mxCell>
        <mxCell id="leX6Jk-sskUQgYAU_4JE-23" value="+ receiveEmails(): List" style="text;strokeColor=none;fillColor=none;align=left;verticalAlign=top;spacingLeft=4;spacingRight=4;overflow=hidden;rotatable=0;points=[[0,0.5],[1,0.5]];portConstraint=eastwest;whiteSpace=wrap;html=1;" vertex="1" parent="leX6Jk-sskUQgYAU_4JE-20">
          <mxGeometry y="34" width="160" height="26" as="geometry" />
        </mxCell>
        <mxCell id="leX6Jk-sskUQgYAU_4JE-41" style="rounded=0;orthogonalLoop=1;jettySize=auto;html=1;exitX=0.5;exitY=0;exitDx=0;exitDy=0;entryX=0.5;entryY=1;entryDx=0;entryDy=0;endArrow=block;endFill=0;" edge="1" parent="1" source="leX6Jk-sskUQgYAU_4JE-28" target="leX6Jk-sskUQgYAU_4JE-16">
          <mxGeometry relative="1" as="geometry" />
        </mxCell>
        <mxCell id="leX6Jk-sskUQgYAU_4JE-46" style="rounded=0;orthogonalLoop=1;jettySize=auto;html=1;exitX=0.5;exitY=1;exitDx=0;exitDy=0;endArrow=open;endFill=0;" edge="1" parent="1" source="leX6Jk-sskUQgYAU_4JE-28" target="leX6Jk-sskUQgYAU_4JE-1">
          <mxGeometry relative="1" as="geometry" />
        </mxCell>
        <mxCell id="leX6Jk-sskUQgYAU_4JE-28" value="UkrNetImapReceive" style="swimlane;fontStyle=1;align=center;verticalAlign=top;childLayout=stackLayout;horizontal=1;startSize=26;horizontalStack=0;resizeParent=1;resizeParentMax=0;resizeLast=0;collapsible=1;marginBottom=0;whiteSpace=wrap;html=1;" vertex="1" parent="1">
          <mxGeometry x="270" y="730" width="160" height="60" as="geometry" />
        </mxCell>
        <mxCell id="leX6Jk-sskUQgYAU_4JE-29" value="" style="line;strokeWidth=1;fillColor=none;align=left;verticalAlign=middle;spacingTop=-1;spacingLeft=3;spacingRight=3;rotatable=0;labelPosition=right;points=[];portConstraint=eastwest;strokeColor=inherit;" vertex="1" parent="leX6Jk-sskUQgYAU_4JE-28">
          <mxGeometry y="26" width="160" height="8" as="geometry" />
        </mxCell>
        <mxCell id="leX6Jk-sskUQgYAU_4JE-30" value="+ receiveEmails(): List" style="text;strokeColor=none;fillColor=none;align=left;verticalAlign=top;spacingLeft=4;spacingRight=4;overflow=hidden;rotatable=0;points=[[0,0.5],[1,0.5]];portConstraint=eastwest;whiteSpace=wrap;html=1;" vertex="1" parent="leX6Jk-sskUQgYAU_4JE-28">
          <mxGeometry y="34" width="160" height="26" as="geometry" />
        </mxCell>
        <mxCell id="leX6Jk-sskUQgYAU_4JE-49" style="rounded=0;orthogonalLoop=1;jettySize=auto;html=1;exitX=0.5;exitY=1;exitDx=0;exitDy=0;entryX=0.5;entryY=0;entryDx=0;entryDy=0;endArrow=open;endFill=0;" edge="1" parent="1" source="leX6Jk-sskUQgYAU_4JE-31" target="leX6Jk-sskUQgYAU_4JE-1">
          <mxGeometry relative="1" as="geometry" />
        </mxCell>
        <mxCell id="leX6Jk-sskUQgYAU_4JE-31" value="IUAImapReceive" style="swimlane;fontStyle=1;align=center;verticalAlign=top;childLayout=stackLayout;horizontal=1;startSize=26;horizontalStack=0;resizeParent=1;resizeParentMax=0;resizeLast=0;collapsible=1;marginBottom=0;whiteSpace=wrap;html=1;" vertex="1" parent="1">
          <mxGeometry x="500" y="710" width="160" height="60" as="geometry" />
        </mxCell>
        <mxCell id="leX6Jk-sskUQgYAU_4JE-32" value="" style="line;strokeWidth=1;fillColor=none;align=left;verticalAlign=middle;spacingTop=-1;spacingLeft=3;spacingRight=3;rotatable=0;labelPosition=right;points=[];portConstraint=eastwest;strokeColor=inherit;" vertex="1" parent="leX6Jk-sskUQgYAU_4JE-31">
          <mxGeometry y="26" width="160" height="8" as="geometry" />
        </mxCell>
        <mxCell id="leX6Jk-sskUQgYAU_4JE-33" value="+ receiveEmails(): List" style="text;strokeColor=none;fillColor=none;align=left;verticalAlign=top;spacingLeft=4;spacingRight=4;overflow=hidden;rotatable=0;points=[[0,0.5],[1,0.5]];portConstraint=eastwest;whiteSpace=wrap;html=1;" vertex="1" parent="leX6Jk-sskUQgYAU_4JE-31">
          <mxGeometry y="34" width="160" height="26" as="geometry" />
        </mxCell>
        <mxCell id="leX6Jk-sskUQgYAU_4JE-38" style="rounded=0;orthogonalLoop=1;jettySize=auto;html=1;exitX=0.5;exitY=1;exitDx=0;exitDy=0;endArrow=open;endFill=0;" edge="1" parent="1" source="leX6Jk-sskUQgYAU_4JE-34" target="leX6Jk-sskUQgYAU_4JE-9">
          <mxGeometry relative="1" as="geometry" />
        </mxCell>
        <mxCell id="leX6Jk-sskUQgYAU_4JE-34" value="EmaiClientUI" style="swimlane;fontStyle=1;align=center;verticalAlign=top;childLayout=stackLayout;horizontal=1;startSize=26;horizontalStack=0;resizeParent=1;resizeParentMax=0;resizeLast=0;collapsible=1;marginBottom=0;whiteSpace=wrap;html=1;" vertex="1" parent="1">
          <mxGeometry x="270" y="300" width="160" height="34" as="geometry" />
        </mxCell>
        <mxCell id="leX6Jk-sskUQgYAU_4JE-36" value="" style="line;strokeWidth=1;fillColor=none;align=left;verticalAlign=middle;spacingTop=-1;spacingLeft=3;spacingRight=3;rotatable=0;labelPosition=right;points=[];portConstraint=eastwest;strokeColor=inherit;" vertex="1" parent="leX6Jk-sskUQgYAU_4JE-34">
          <mxGeometry y="26" width="160" height="8" as="geometry" />
        </mxCell>
        <mxCell id="leX6Jk-sskUQgYAU_4JE-40" style="rounded=0;orthogonalLoop=1;jettySize=auto;html=1;exitX=0.5;exitY=0;exitDx=0;exitDy=0;entryX=-0.018;entryY=0.214;entryDx=0;entryDy=0;entryPerimeter=0;endArrow=block;endFill=0;" edge="1" parent="1" source="leX6Jk-sskUQgYAU_4JE-20" target="leX6Jk-sskUQgYAU_4JE-19">
          <mxGeometry relative="1" as="geometry" />
        </mxCell>
        <mxCell id="leX6Jk-sskUQgYAU_4JE-42" style="rounded=0;orthogonalLoop=1;jettySize=auto;html=1;exitX=0.5;exitY=0;exitDx=0;exitDy=0;entryX=1.005;entryY=0.321;entryDx=0;entryDy=0;entryPerimeter=0;endArrow=block;endFill=0;" edge="1" parent="1" source="leX6Jk-sskUQgYAU_4JE-31" target="leX6Jk-sskUQgYAU_4JE-19">
          <mxGeometry relative="1" as="geometry" />
        </mxCell>
        <mxCell id="leX6Jk-sskUQgYAU_4JE-47" style="rounded=0;orthogonalLoop=1;jettySize=auto;html=1;exitX=0.5;exitY=1;exitDx=0;exitDy=0;entryX=0.2;entryY=0.033;entryDx=0;entryDy=0;entryPerimeter=0;endArrow=open;endFill=0;" edge="1" parent="1" source="leX6Jk-sskUQgYAU_4JE-28" target="leX6Jk-sskUQgYAU_4JE-5">
          <mxGeometry relative="1" as="geometry" />
        </mxCell>
        <mxCell id="leX6Jk-sskUQgYAU_4JE-48" style="rounded=0;orthogonalLoop=1;jettySize=auto;html=1;exitX=0.5;exitY=1;exitDx=0;exitDy=0;entryX=0.573;entryY=0.013;entryDx=0;entryDy=0;entryPerimeter=0;endArrow=open;endFill=0;" edge="1" parent="1" source="leX6Jk-sskUQgYAU_4JE-31" target="leX6Jk-sskUQgYAU_4JE-5">
          <mxGeometry relative="1" as="geometry" />
        </mxCell>
        <mxCell id="leX6Jk-sskUQgYAU_4JE-50" style="rounded=0;orthogonalLoop=1;jettySize=auto;html=1;exitX=0.5;exitY=1;exitDx=0;exitDy=0;entryX=0.205;entryY=0.029;entryDx=0;entryDy=0;entryPerimeter=0;endArrow=open;endFill=0;" edge="1" parent="1" source="leX6Jk-sskUQgYAU_4JE-20" target="leX6Jk-sskUQgYAU_4JE-1">
          <mxGeometry relative="1" as="geometry" />
        </mxCell>
        <mxCell id="leX6Jk-sskUQgYAU_4JE-51" style="rounded=0;orthogonalLoop=1;jettySize=auto;html=1;exitX=0.5;exitY=1;exitDx=0;exitDy=0;entryX=0.345;entryY=0;entryDx=0;entryDy=0;entryPerimeter=0;endArrow=open;endFill=0;" edge="1" parent="1" source="leX6Jk-sskUQgYAU_4JE-20" target="leX6Jk-sskUQgYAU_4JE-5">
          <mxGeometry relative="1" as="geometry" />
        </mxCell>
      </root>
    </mxGraphModel>
  </diagram>
</mxfile>
